<?xml version="1.0" standalone="no"?>
<!DOCTYPE svg PUBLIC "-//W3C//DTD SVG 1.1//EN" "http://www.w3.org/Graphics/SVG/1.1/DTD/svg11.dtd" >
<svg xmlns="http://www.w3.org/2000/svg">
<metadata>Generated by IcoMoon</metadata>
<defs>
<font id="icomoon" horiz-adv-x="1024">
<font-face units-per-em="1024" ascent="960" descent="-64" />
<missing-glyph horiz-adv-x="1024" />
<glyph unicode="&#x20;" horiz-adv-x="512" d="" />
<glyph unicode="&#xe900;" glyph-name="icon-1" horiz-adv-x="1122" d="M104.497 76.264c1.341 3.779 130.633 378.319 130.633 537.112 0 13.702 10.898 24.795 24.381 24.795h303.616c13.483 0 24.381-11.093 24.381-24.82 0-142.75 133.583-526.238 134.9-530.115 0.909-2.481 1.435-5.346 1.435-8.334 0-10.625-6.65-19.696-16.015-23.28l-0.171-0.057c-2.419-0.884-5.213-1.395-8.125-1.395-10.616 0-19.646 6.792-22.981 16.268l-0.052 0.171c-3.998 11.435-72.070 206.946-111.006 373.248h-222.281c-13.458 0-24.381 11.045-24.381 24.771s10.923 24.795 24.381 24.795h211.529c-7.412 36.596-12.898 70.656-14.994 99.133h-256.658c-10.923-176.396-127.39-513.829-132.584-528.774-3.399-9.672-12.455-16.482-23.101-16.482-2.86 0-5.605 0.491-8.156 1.395l0.171-0.053c-9.607 3.604-16.321 12.712-16.321 23.388 0 2.951 0.513 5.782 1.454 8.408l-0.054-0.174zM913.749 514.219c0-142.824 99.718-431.738 100.693-434.639 4.486-12.922-2.194-27.063-14.897-31.646-2.408-0.895-5.191-1.414-8.094-1.414v0c-10.045 0-19.48 6.388-22.991 16.53-2.877 8.29-49.615 144.067-79.262 277.65h-176.542c-13.483 0-24.381 11.069-24.381 24.771 0 13.678 10.898 24.795 24.381 24.795h166.327c-6.583 35.206-11.386 69.12-13.19 99.157h-207.531c-13.458 0-24.381 11.093-24.381 24.795s10.923 24.771 24.381 24.771h231.107c13.458 0 24.381-11.069 24.381-24.771zM1121.475-31.11c0-13.702-10.874-24.795-24.357-24.795h-1072.762c-13.483 0-24.381 11.093-24.381 24.795s10.898 24.771 24.381 24.771h1072.762c13.483 0 24.381-11.069 24.381-24.771zM384.61 708.73c-9.021 13.605-20.407 44.934-6.071 76.142 18.676 40.692 70.729 65.097 159.208 74.703 104.521 11.362 131.706 39.936 138.557 51.688 5.656 9.655 3.584 17.481 3.535 17.554-5.144 12.654 0.731 27.16 13.141 32.402 2.763 1.185 5.979 1.875 9.356 1.875 10.151 0 18.848-6.229 22.476-15.073l0.059-0.162c1.268-3.023 11.63-30.549-6.607-61.854-23.381-40.155-82.383-65.634-175.397-75.678-93.257-10.118-114.981-35.572-119.979-46.080-6.485-13.58 1.999-27.526 2.389-28.136 2.385-3.772 3.801-8.362 3.801-13.284 0-8.618-4.341-16.222-10.956-20.745l-0.086-0.056c-3.757-2.572-8.4-4.108-13.402-4.108-8.343 0-15.689 4.272-19.968 10.748l-0.055 0.089zM738.645 605.306c-6.656 10.118-11.605 28.16-3.56 45.666 9.996 21.821 35.182 34.621 77.093 39.156 32.183 3.511 42.667 10.679 45.422 13.336-0.282 1.408-0.444 3.026-0.444 4.682 0 10.184 6.11 18.942 14.864 22.806l0.159 0.063c2.749 1.166 5.946 1.844 9.302 1.844 10.158 0 18.864-6.212 22.529-15.043l0.059-0.162c3.779-9.167 4.754-24.137-3.608-38.522-12.239-21.016-39.424-33.524-83.139-38.278-31.72-3.413-38.254-11.118-38.278-11.215 7.509-11.362 4.559-25.112-6.583-32.744-3.377-2.321-7.554-3.706-12.054-3.706-0.031 0-0.062 0-0.093 0h0.005c-8.338 0-16.677 4.559-21.675 12.117z" />
<glyph unicode="&#xe901;" glyph-name="icon-2" horiz-adv-x="939" d="M937.109 768.043v-776.533c0-30.592-24.96-55.467-55.637-55.467h-664.533c-30.624 0.024-55.442 24.843-55.467 55.464v113.559c0 11.776 9.643 21.333 21.547 21.333 11.925 0 21.547-9.557 21.547-21.333v-113.557c0-6.955 5.653-12.8 12.373-12.8h664.533c6.827 0 12.587 5.845 12.587 12.8v755.2h-150.848c-11.925 0-21.547 9.557-21.547 21.333v149.611l-504.725-0.277c-6.72 0-12.373-5.995-12.373-13.013v-114.603c0-11.797-9.621-21.333-21.547-21.333-11.904 0-21.547 9.536-21.547 21.333v114.581c0 0.006 0 0.014 0 0.022 0 30.672 24.81 55.549 55.456 55.658h526.282c18.005 0 27.605-9.323 34.581-16.128l142.763-139.477c7.723-7.573 16.555-18.496 16.555-36.373zM764.757 789.376h109.845l-109.845 107.328zM225.771 355.605c-23.553 9.618-41.973 27.74-51.754 50.457l-0.236 0.615c-4.738 10.808-7.495 23.405-7.495 36.646 0 12.951 2.638 25.287 7.406 36.498l-0.231-0.611c19.563 47.189 77.013 71.083 124.843 51.776 48.811-19.797 72.32-75.221 52.309-123.563-14.708-34.859-48.602-58.881-88.107-58.881-0.172 0-0.345 0-0.517 0.001h0.026c-12.437 0-24.64 2.389-36.245 7.061zM242.112 395.136c26.411-10.667 57.877 2.56 68.608 28.459 2.456 5.827 3.884 12.601 3.884 19.708 0 21.727-13.338 40.338-32.273 48.092l-0.346 0.126c-5.867 2.469-12.687 3.904-19.842 3.904-0.022 0-0.044 0-0.066 0h0.003c-0.077 0-0.167 0.001-0.258 0.001-21.73 0-40.371-13.223-48.317-32.062l-0.129-0.344c-2.497-5.822-3.949-12.598-3.949-19.713 0-7.269 1.515-14.184 4.248-20.447l-0.128 0.33c5.419-12.843 15.573-22.805 28.565-28.053zM195.648 185.557c-26.032 6.619-48.889 16.148-69.904 28.477l1.254-0.68c-6.462 3.726-10.742 10.598-10.742 18.469 0 1.944 0.261 3.827 0.75 5.616l-0.035-0.149 13.632 50.965c-8.741 7.277-16.575 14.97-23.743 23.256l-0.215 0.254-51.456-13.909c-1.702-0.48-3.657-0.757-5.676-0.757-7.819 0-14.671 4.14-18.483 10.348l-0.054 0.094c-11.827 19.494-21.631 42.012-28.244 65.857l-0.449 1.898c-0.445 1.626-0.701 3.493-0.701 5.42 0 7.864 4.263 14.732 10.605 18.419l0.102 0.055 46.059 26.539c-0.496 5.278-0.778 11.413-0.778 17.614 0 5.574 0.228 11.095 0.676 16.553l-0.047-0.716-46.272 26.176c-6.532 3.698-10.868 10.6-10.868 18.515 0 1.881 0.245 3.704 0.704 5.441l-0.033-0.148c6.208 23.829 15.659 46.72 28.096 67.947 4.885 8.32 14.741 12.352 24.149 9.899l51.52-13.461c7.253 8.533 15.189 16.448 23.787 23.723l-14.059 50.901c-0.483 1.688-0.761 3.627-0.761 5.631 0 7.796 4.207 14.61 10.475 18.294l0.1 0.054c21.077 12.373 44.757 22.187 68.416 28.373 9.344 2.496 19.264-1.579 24.149-9.856l26.816-45.653c5.286 0.48 11.434 0.754 17.646 0.754 5.66 0 11.267-0.227 16.812-0.673l-0.73 0.047 26.411 45.781c3.811 6.484 10.752 10.768 18.694 10.768 1.908 0 3.758-0.247 5.521-0.712l-0.151 0.034c24.427-6.187 46.891-15.296 68.672-27.84 6.443-3.742 10.707-10.61 10.707-18.474 0-1.927-0.256-3.794-0.736-5.569l0.034 0.149-13.653-51.029c8.619-7.168 16.576-15.019 23.893-23.467l51.413 13.909c9.387 2.496 19.307-1.493 24.213-9.728 11.882-19.502 21.684-42.035 28.236-65.912l0.436-1.864c0.453-1.636 0.714-3.514 0.714-5.453 0-7.851-4.271-14.705-10.617-18.364l-0.102-0.055-46.080-26.56c0.981-11.072 1.003-22.187 0.128-33.28l46.293-26.155c8.427-4.757 12.587-14.507 10.176-23.829-6.728-25.804-16.35-48.436-28.76-69.21l0.664 1.2c-4.907-8.299-14.827-12.331-24.149-9.877l-51.52 13.44c-7.322-8.566-15.066-16.276-23.385-23.33l-0.295-0.244 14.080-50.965c0.474-1.676 0.747-3.601 0.747-5.59 0-7.804-4.199-14.628-10.461-18.335l-0.099-0.054c-21.333-12.501-44.352-22.059-68.416-28.416-1.65-0.45-3.545-0.709-5.501-0.709-7.89 0-14.797 4.212-18.594 10.51l-0.055 0.098-26.795 45.653c-11.157-1.003-22.4-1.045-33.685-0.192l-26.432-45.824c-3.806-6.483-10.743-10.767-18.681-10.767-1.905 0-3.753 0.247-5.512 0.71l0.15-0.034zM190.699 231.424l25.067 43.456c3.824 6.472 10.765 10.744 18.704 10.744 1.154 0 2.286-0.090 3.391-0.264l-0.122 0.016c7.296-1.169 15.709-1.838 24.277-1.838 9.1 0 18.024 0.754 26.713 2.202l-0.942-0.13c8.747 1.621 17.6-2.688 22.101-10.304l25.387-43.243c9.472 3.243 18.709 7.061 27.669 11.52l-13.355 48.213c-2.347 8.533 0.853 17.621 8.021 22.848 13.627 9.942 25.267 21.548 34.933 34.695l0.309 0.441c4.029 5.387 10.392 8.836 17.56 8.836 1.932 0 3.805-0.251 5.59-0.721l-0.152 0.034 48.811-12.8c4.459 8.96 8.192 18.048 11.371 27.456l-43.861 24.832c-6.521 3.712-10.847 10.615-10.847 18.528 0 1.133 0.089 2.246 0.26 3.331l-0.016-0.12c2.56 16.427 2.475 33.109-0.235 49.536-0.175 1.024-0.275 2.203-0.275 3.406 0 7.865 4.274 14.733 10.626 18.406l0.102 0.055 43.669 25.173c-3.808 10.9-7.712 19.93-12.16 28.636l0.597-1.287-48.747-13.184c-1.705-0.483-3.663-0.761-5.686-0.761-7.081 0-13.368 3.403-17.314 8.662l-0.040 0.056c-10.076 13.521-21.811 25.073-35.070 34.642l-0.471 0.324c-5.428 3.904-8.922 10.203-8.922 17.318 0 1.936 0.259 3.811 0.743 5.593l-0.035-0.149 12.928 48.32c-9.003 4.395-18.176 8.107-27.733 11.264l-25.024-43.435c-3.737-6.485-10.631-10.78-18.528-10.78-1.224 0-2.425 0.103-3.593 0.302l0.126-0.018c-7.37 1.189-15.867 1.868-24.522 1.868-9.043 0-17.912-0.742-26.551-2.167l0.94 0.128c-1.021-0.17-2.197-0.267-3.396-0.267-7.886 0-14.792 4.195-18.608 10.474l-0.054 0.096-25.387 43.221c-9.429-3.221-18.709-7.083-27.669-11.435l13.333-48.235c0.476-1.678 0.75-3.605 0.75-5.596 0-7.065-3.448-13.325-8.753-17.188l-0.061-0.042c-13.663-9.969-25.331-21.611-35.017-34.799l-0.311-0.443c-3.962-5.419-10.297-8.899-17.444-8.899-1.975 0-3.888 0.266-5.705 0.763l0.151-0.035-48.789 12.757c-4.395-8.853-8.171-18.027-11.349-27.413l43.84-24.768c7.744-4.416 11.989-13.013 10.624-21.76-1.194-7.267-1.876-15.643-1.876-24.178 0-9.008 0.76-17.839 2.22-26.432l-0.13 0.924c0.174-1.023 0.273-2.201 0.273-3.403 0-7.867-4.262-14.738-10.604-18.431l-0.102-0.055-43.627-25.152c3.243-9.301 7.147-18.496 11.563-27.307l48.725 13.163c8.661 2.24 17.771-0.853 23.040-7.936 10.095-13.536 21.858-25.096 35.152-34.662l0.474-0.325c7.253-5.141 10.496-14.208 8.235-22.741l-12.907-48.341c9.045-4.373 18.197-8.085 27.733-11.2z" />
<glyph unicode="&#xe902;" glyph-name="icon-3" d="M1023.065 693.693l-56.031-601.778c-1.104-11.356-10.597-20.162-22.149-20.168h-0.379l-9.505 0.067c-223.277 0-410.713-130.426-412.561-131.695-0.445-0.312-1.002-0.223-1.447-0.445-0.49-0.312-0.712-0.89-1.247-1.18-2.955-1.556-6.458-2.469-10.174-2.469-3.733 0-7.251 0.922-10.338 2.55l0.121-0.058c-0.534 0.289-0.779 0.89-1.269 1.18-0.445 0.267-1.024 0.156-1.447 0.49-1.848 1.313-186.991 131.629-410.157 131.629l-9.884-0.067c-11.58 0.011-21.089 8.863-22.143 20.169l-0.007 0.088-53.649 601.778c-0.055 0.587-0.086 1.27-0.086 1.96 0 9.478 5.923 17.573 14.27 20.784l0.152 0.052c2.404 0.89 25.043 8.904 71.903 8.904 66.849 0 179.022-16.295 347.937-86.483-65.937 63.622-189.262 149.927-379.815 160.456-11.74 0.614-21.027 10.283-21.027 22.121 0 0.441 0.013 0.878 0.038 1.313l-0.003-0.060c0.668 12.288 11.064 22.038 23.418 20.992 190.063-10.463 316.883-89.355 391.235-155.893-47.193 78.336-146.432 178.176-353.503 226.104-10.396 2.011-18.139 11.039-18.139 21.876 0 12.294 9.967 22.261 22.261 22.261 2.098 0 4.128-0.29 6.053-0.833l-0.157 0.038c264.86-61.351 366.993-204.154 406.016-294.311 39.001 90.157 141.112 232.96 405.994 294.289 1.239 0.245 2.664 0.385 4.122 0.385 12.294 0 22.261-9.967 22.261-22.261 0-10.196-6.855-18.792-16.208-21.428l-0.157-0.038c-203.353-47.082-302.904-145.875-351.165-223.989 74.641 66.115 200.793 143.449 388.875 153.8 11.821 1.135 22.751-8.682 23.418-20.992 0.023-0.375 0.036-0.813 0.036-1.254 0-11.83-9.275-21.494-20.95-22.118l-0.055-0.002c-188.305-10.396-310.762-94.675-377.277-158.119 165.888 68.051 277.771 84.146 345.043 84.146 47.571 0 70.723-7.947 73.216-8.838 8.619-3.201 14.649-11.356 14.649-20.919 0-0.707-0.033-1.407-0.098-2.098l0.007 0.088zM96.968 116.224c176.328-2.938 325.098-78.381 390.389-117.315v568.609c-201.973 93.585-328.949 113.508-400.295 113.508-17.631 0-30.943-1.291-40.203-2.694zM976.941 678.266c-11.89 1.762-25.614 2.768-39.573 2.768-0.73 0-1.46-0.003-2.189-0.008l0.112 0.001c-72.793 0-201.439-19.923-403.456-113.508v-568.81c65.67 38.823 215.93 114.577 392.793 117.515z" />
<glyph unicode="&#xe903;" glyph-name="icon-4" d="M179.069 381.179c-12.724 44.707-80.874 144.994-124.47 203.558 7.822-55.754 1.569-114.949-4.488-172.664-13.334-127.172-25.927-247.285 103.163-325.414l3.464-1.59c53.553-26.646 114.187-56.56 237.35-48.368 11.918 1.59 22.419-8.17 23.312-20.001 0.026-0.396 0.041-0.859 0.041-1.325 0-11.512-8.973-20.928-20.306-21.636l-0.062-0.003c-15.251-1.024-29.674-1.482-43.291-1.482-107.237 0-167.326 29.805-216.783 54.359l-4.989 2.506c-154.123 93.184-138.85 238.832-125.386 367.333 8.061 76.756 15.643 149.286-7.255 211.227-1.198 3.095-1.893 6.677-1.893 10.42 0 9.812 4.769 18.51 12.115 23.902l0.083 0.058c5.117 3.878 11.591 6.212 18.61 6.212 6.825 0 13.135-2.207 18.255-5.946l-0.088 0.061c15.229-11.286 109.132-136.911 153.774-221.424 8.715 32.833 13.922 75.885 19.303 120.636 16.515 137.63 37.125 308.899 171.226 388.161 9.543 5.665 21.351 5.774 30.96 0.349 9.586-5.338 15.578-15.425 15.578-26.275 0-160.746 11.787-277.831 35.927-355.067 27.19 65.732 83.881 165.735 181.052 181.662 12.266 2.506 25.208-3.638 31.657-14.685 2.63-4.324 4.187-9.552 4.187-15.143 0-7.594-2.871-14.516-7.587-19.742l0.023 0.026c-57.693-66.233-29.13-190.333-14.162-240.684 0.549-1.805 0.866-3.879 0.866-6.027 0-9.794-6.575-18.053-15.552-20.604l-0.151-0.037c-1.859-0.572-3.996-0.902-6.211-0.902-9.798 0-18.089 6.455-20.851 15.345l-0.041 0.155c-18.454 61.941-39.936 169.657 1.22 248.788-70.83-35.121-115.342-134.819-131.726-195.279-2.353-8.541-9.804-14.859-18.715-15.839-0.764-0.095-1.649-0.149-2.546-0.149-8.292 0-15.502 4.632-19.184 11.45l-0.057 0.116c-40.59 76.081-60.351 204.364-61.789 402.541-98.326-74.077-116.191-222.578-130.745-343.236-9.151-76.234-17.081-142.053-43.095-180.812-2.591-3.831-6.28-6.745-10.612-8.318l-0.151-0.048c-5.774-2.026-12.811-1.961-18.192 0.806-5.425 2.745-10.153 7.255-11.787 13.029zM896.85 210.432v-86.060h104.666c0.052 0 0.113 0.001 0.175 0.001 11.919 0 21.592-9.619 21.678-21.518v-0.008c-0.098-11.91-9.776-21.526-21.699-21.526-0.054 0-0.108 0-0.161 0.001h-235.839v-86.060h235.847c0.058 0.001 0.127 0.001 0.196 0.001 11.915 0 21.582-9.622 21.656-21.52v-0.007c-0.098-11.898-9.766-21.505-21.678-21.505-0.062 0-0.123 0-0.184 0.001h-520.096c-0.052 0-0.113-0.001-0.175-0.001-11.912 0-21.579 9.607-21.678 21.495v387.342c0.098 11.886 9.756 21.483 21.656 21.483 0.069 0 0.138 0 0.207-0.001h520.094c0.058 0.001 0.128 0.001 0.197 0.001 11.9 0 21.558-9.597 21.656-21.474v-0.009c-0.074-11.929-9.761-21.57-21.7-21.57-0.054 0-0.107 0-0.161 0.001h-235.839v-86.060h235.847c0.058 0.001 0.128 0.001 0.197 0.001 11.9 0 21.558-9.597 21.656-21.474v-0.009c-0.086-11.907-9.759-21.526-21.678-21.526-0.061 0-0.123 0-0.184 0.001h0.009zM503.285 253.44h218.635v86.060h-218.635zM590.739 210.432h-87.454v-86.060h87.454zM721.92 81.321h-218.635v-86.060h218.635zM853.101 210.432h-218.635v-86.060h218.635z" />
<glyph unicode="&#xe904;" glyph-name="arrow_repeat" d="M853.049 391.68c0-170.553-152.917-341.106-340.878-341.106-188.213 0.291-340.692 152.87-340.821 341.093v0.013c0.129 188.235 152.608 340.814 340.793 341.106h0.028v-113.778l284.103 170.667-284.103 170.496v-113.721c-250.994 0-454.485-203.605-454.485-454.77 0-251.221 203.492-454.827 454.542-454.827 250.994 0 454.485 170.496 454.485 454.827z" />
<glyph unicode="&#xe905;" glyph-name="close" d="M27.768 821.519l110.712 110.712 885.88-885.88-110.712-110.712zM0.12 74.059l885.82 885.88 110.712-110.712-885.82-885.88z" />
<glyph unicode="&#xe906;" glyph-name="email" d="M1023.744 831.642v-767.898h-1023.488v767.898h1023.488zM921.395 166.144v411.955l-409.395-359.731-409.395 360.141v-412.365zM921.395 729.242h-818.79v-14.336l409.446-360.243 409.344 359.731z" />
<glyph unicode="&#xe907;" glyph-name="key" d="M1024.512 653.824c-0.139-168.794-137.005-305.574-305.818-305.574-66.278 0-127.631 21.084-177.719 56.91l0.925-0.629-151.245-151.040 71.68-71.578-72.090-72.038-71.68 71.629-100.966-100.762 70.707-70.656-72.141-71.987-70.656 70.656-72.704-72.704-72.192 72.038 468.992 468.326c-35.717 49.135-57.139 110.67-57.139 177.208 0 0.070 0 0.141 0 0.211v-0.011c0.117 168.81 136.991 305.613 305.818 305.613 0.054 0 0.108 0 0.162 0h-0.008c0.061 0 0.133 0 0.205 0 168.826 0 305.701-136.802 305.818-305.601v-0.011zM922.47 653.824c-0.175 112.562-91.45 203.747-204.029 203.776h-0.003c-112.56-0.058-203.806-91.232-203.981-203.759v-0.017c0.204-112.522 91.439-203.667 203.975-203.725h0.006c112.582 0.029 203.857 91.214 204.032 203.759v0.017z" />
<glyph unicode="&#xe908;" glyph-name="fax" horiz-adv-x="1293" d="M1079.107 666.193c0-14.929-12.18-26.947-27.244-26.947h-378.88c-15.091 0-27.217 12.019-27.217 26.947 0 14.902 12.126 26.947 27.217 26.947h378.88c15.064 0 27.217-12.045 27.217-26.947zM1272.024 171.224c-10.86-88.98-25.142-126.141-85.585-126.141h-569.533c-0.048 0-0.105 0-0.162 0-14.91 0-27.006 12.049-27.082 26.941v0.007c0 14.902 12.18 26.947 27.244 26.947h569.533c2.695 0 10.968 0 12.827 0.97 1.644 1.159 10.483 10.563 18.648 77.716 18.27 149.504 18.27 392.866 0 542.451-9.863 80.923-17.974 80.923-31.475 80.923h-569.533c-0.048 0-0.105 0-0.162 0-14.91 0-27.006 12.049-27.082 26.941v0.007c0 14.902 12.18 26.947 27.244 26.947h569.533c60.2 0 74.509-37.861 85.585-128.377 18.675-153.142 18.675-402.27 0-555.331zM71.195 720.141c-18.27-149.531-18.27-392.866 0-542.477 8.165-67.153 17.004-76.531 18.675-77.77 1.832-0.889 10.078-0.889 12.8-0.889h23.256c15.037 0 27.217-12.072 27.217-26.947 0-14.929-12.18-26.974-27.217-26.974h-23.256c-60.443 0-74.725 37.187-85.585 126.141-18.701 153.169-18.701 402.324 0 555.331 11.048 90.516 25.384 128.35 85.585 128.35h23.256c15.037 0 27.217-12.019 27.217-26.947 0-14.902-12.18-26.947-27.217-26.947h-23.256c-13.474 0-21.612 0-31.475-80.869zM535.148 870.616v-845.123c0-49.314-40.098-89.465-89.384-89.465h-148.749c-49.363 0.077-89.354 40.096-89.384 89.462v845.126c0.061 49.341 40.044 89.323 89.379 89.384h148.755c49.347-0.046 89.338-40.037 89.384-89.38v-0.005zM480.687 870.616c0 19.564-15.683 35.49-34.924 35.49h-148.749c-19.24 0-34.897-15.899-34.897-35.49v-845.123c-0.001-0.073-0.001-0.159-0.001-0.245 0-19.354 15.576-35.071 34.876-35.299h148.771c19.334 0.213 34.925 15.935 34.925 35.299 0 0.095 0 0.191-0.001 0.286v-0.015zM645.74 504.455c0 14.875 12.18 26.947 27.217 26.947h52.359c15.037 0 27.217-12.072 27.217-26.947 0-14.929-12.18-26.974-27.217-26.974h-52.332c-15.091 0-27.217 12.045-27.217 26.947zM645.74 396.611c0 14.929 12.18 26.947 27.217 26.947h52.359c15.037 0 27.217-12.019 27.217-26.947 0-14.902-12.18-26.947-27.217-26.947h-52.332c-15.091 0-27.217 12.045-27.217 26.947zM645.74 288.795c0 14.902 12.18 26.947 27.217 26.947h52.359c15.037 0 27.217-12.045 27.217-26.947s-12.18-26.947-27.217-26.947h-52.332c-15.091 0-27.217 12.045-27.217 26.947zM915.968 504.455c0-14.929-12.18-26.974-27.217-26.974h-52.332c-15.064 0-27.217 12.045-27.217 26.947s12.153 26.947 27.217 26.947h52.332c15.037 0 27.217-12.045 27.217-26.947zM915.968 396.611c0-14.902-12.18-26.947-27.217-26.947h-52.332c-15.064 0-27.217 12.045-27.217 26.947 0 14.929 12.153 26.947 27.217 26.947h52.332c15.037 0 27.217-12.019 27.217-26.947zM915.968 288.795c0-14.902-12.18-26.947-27.217-26.947h-52.332c-15.064 0-27.217 12.045-27.217 26.947s12.153 26.947 27.217 26.947h52.332c15.037 0 27.217-12.045 27.217-26.947zM1079.431 504.455c0-14.929-12.153-26.974-27.217-26.974h-52.332c-15.064 0-27.217 12.045-27.217 26.947s12.153 26.947 27.217 26.947h52.332c15.064 0 27.217-12.045 27.217-26.947zM1079.431 396.611c0-14.902-12.153-26.947-27.217-26.947h-52.332c-15.064 0-27.217 12.045-27.217 26.947 0 14.929 12.153 26.947 27.217 26.947h52.332c15.064 0 27.217-12.019 27.217-26.947zM1079.431 288.795c0-14.902-12.153-26.947-27.217-26.947h-52.332c-15.064 0-27.217 12.045-27.217 26.947s12.153 26.947 27.217 26.947h52.332c15.064 0 27.217-12.045 27.217-26.947z" />
<glyph unicode="&#xe909;" glyph-name="phone" d="M564.736 192.717c0-28.277-22.923-51.2-51.2-51.2s-51.2 22.923-51.2 51.2v0c0 28.277 22.923 51.2 51.2 51.2s51.2-22.923 51.2-51.2v0zM819.61 858.419v-819.354c0-56.554-45.846-102.4-102.4-102.4v0h-409.6c-56.554 0-102.4 45.846-102.4 102.4v0 819.354c0 56.554 45.846 102.4 102.4 102.4v0h409.6c56.554 0 102.4-45.846 102.4-102.4v0zM717.21 807.219c0 28.277-22.923 51.2-51.2 51.2v0h-307.2c-28.277 0-51.2-22.923-51.2-51.2v0-716.902c0-28.277 22.923-51.2 51.2-51.2v0h307.2c28.277 0 51.2 22.923 51.2 51.2v0z" />
<glyph unicode="&#xe90a;" glyph-name="play" d="M170.667 960.062l682.729-512.031-682.729-512.062z" />
<glyph unicode="&#xe90b;" glyph-name="profile" d="M1023.283-6.656c0.152-1.489 0.239-3.218 0.239-4.967 0-28.528-23.078-51.666-51.583-51.763h-0.009c-0.107-0.001-0.234-0.001-0.362-0.001-26.191 0-47.743 19.865-50.41 45.35l-0.019 0.219c-20.582 228.454-196.301 363.878-409.293 363.878s-388.71-135.424-409.344-363.878c-2.686-25.704-24.238-45.569-50.429-45.569-0.109 0-0.218 0-0.327 0.001h0.017c-30.566 0-54.272 26.522-51.354 56.781 19.712 204.493 145.664 355.994 318.208 420.557-70.485 56.511-115.234 142.606-115.251 239.152v0.003c0 181.76 158.515 326.554 345.446 304.896 135.424-15.616 247.603-123.085 267.93-257.28 2.35-14.248 3.693-30.668 3.693-47.402 0-96.641-44.797-182.819-114.758-238.902l-0.603-0.467c172.544-64.512 298.496-216.064 318.208-420.557zM717.517 653.107c0 112.896-92.262 204.749-205.67 204.749s-205.67-91.853-205.67-204.749c0-112.845 92.262-204.698 205.67-204.698s205.67 91.853 205.67 204.698z" />
<glyph unicode="&#xe90c;" glyph-name="url" d="M275.149 758.784l545.946-546.15-73.626-73.677-545.946 546.099zM931.533 28.467c-56.525-56.554-134.628-91.535-220.902-91.535s-164.378 34.981-220.901 91.534l-73.627 73.678 73.626 73.626 73.677-73.626c37.714-37.642 89.777-60.919 147.277-60.919s109.563 23.277 147.28 60.922l-0.003-0.003c37.636 37.736 60.907 89.814 60.907 147.328s-23.271 109.592-60.911 147.333l-73.672 73.621 73.677 73.626 73.626-73.626c56.538-56.561 91.506-134.686 91.506-220.979s-34.968-164.419-91.507-220.98l0.001 0.001zM164.71 500.941l73.626-73.677-73.626-73.677-73.677 73.728c-53.501 55.988-86.43 132.029-86.43 215.761 0 172.603 139.922 312.525 312.525 312.525 83.732 0 159.773-32.929 215.88-86.543l-0.119 0.113 73.626-73.626-73.626-73.626-73.626 73.626c-37.708 37.654-89.773 60.94-147.277 60.94s-109.568-23.286-147.279-60.943l0.002 0.002c-37.633-37.728-60.902-89.798-60.902-147.302s23.27-109.574 60.907-147.307l-0.004 0.004z" />
<glyph unicode="&#xe90d;" glyph-name="profile_round" d="M919.245-63.181h-814.438c-65.434 0-116.89 58.47-103.014 120.986 38.042 171.93 156.979 298.752 313.6 356.301-71.475 56.32-117.248 142.438-117.248 239.155 0 181.76 161.28 326.656 351.488 304.947 137.83-15.667 251.904-123.136 272.589-257.28 17.818-115.712-30.618-221.44-113.613-286.822 156.672-57.549 275.558-184.371 313.651-356.301 13.824-62.464-37.632-120.986-103.014-120.986zM512 448.512c115.405 0 209.254 91.853 209.254 204.698s-93.85 204.8-209.254 204.8c-115.405 0-209.254-91.955-209.254-204.8s93.85-204.698 209.254-204.698zM897.536 107.571c-63.283 151.706-212.122 238.592-385.536 238.592s-322.202-86.886-385.536-238.592c-13.722-32.768 13.005-68.506 49.203-68.506h672.666c36.198 0 62.976 35.738 49.254 68.506z" />
<glyph unicode="&#xe90e;" glyph-name="home" horiz-adv-x="862" d="M862.477 33.118c0-59.661-48.29-96.525-107.897-96.525h-161.738c-59.554 0-107.897 36.864-107.897 96.472v53.949c0.069 1.020 0.108 2.21 0.108 3.41 0 29.825-24.178 54.003-54.003 54.003s-54.003-24.178-54.003-54.003c0-1.2 0.039-2.391 0.116-3.571l-0.008 0.161v-53.895c0-59.661-48.344-96.525-107.897-96.525h-161.846c-59.554 0-107.789 36.864-107.789 96.472v521.108c0 14.39 5.659 28.133 15.791 38.265l339.052 338.082c19.5 19.467 46.421 31.506 76.154 31.506 29.893 0 56.945-12.169 76.47-31.823l0.006-0.006 339.699-341.585c10.078-10.24 15.737-23.821 15.737-38.104zM754.58 521.135c0 0.014 0 0.031 0 0.048 0 7.429-3.007 14.157-7.869 19.031l-278.096 278.311c-9.764 9.769-23.255 15.811-38.157 15.811s-28.394-6.042-38.157-15.811l-277.019-277.235c-4.881-4.866-7.906-11.59-7.923-19.022v-435.257c0-29.75 24.145-42.523 53.949-42.523h53.949c29.804 0 53.895 12.773 53.895 42.577v53.949c0 59.608 48.344 119.323 107.897 119.323h107.843c59.608 0 107.897-59.715 107.897-119.323v-54.003c0-29.75 24.145-42.523 53.895-42.523h53.949c29.804 0 53.949 12.773 53.949 42.577z" />
<glyph unicode="&#xe90f;" glyph-name="call" d="M1004.954 72.055c-31.676-96.051-155.511-143.974-244.053-135.987-120.9 10.923-252.45 75.025-352.324 145.613-146.773 103.765-284.262 264.329-364.407 434.654-56.661 120.422-69.291 268.425 14.882 378.197 31.198 40.482 64.853 62.191 115.439 64.649 70.246 3.413 80.077-36.727 104.175-99.26 17.954-46.763 41.916-94.481 55.296-143.019 25.122-90.453-62.532-94.208-73.591-168.141-6.895-46.626 49.63-109.158 75.23-142.404 49.547-64.739 108.525-119.241 175.464-162.472l2.712-1.641c38.775-24.439 101.581-68.608 146.091-44.237 68.54 37.547 62.123 153.122 158.037 114.005 49.63-20.207 97.621-49.357 145.135-74.889 73.318-39.39 69.837-80.282 41.916-165.069-20.89-63.351 20.89 63.42 0 0z" />
<glyph unicode="&#xe910;" glyph-name="man" horiz-adv-x="892" d="M800.14 427.223c-1.173-25.27-4.591-49.036-12.618-75.578 18.088-14.421 29.586-36.444 29.613-61.155v-0.005c0-36.765-25.6-67.716-59.987-75.941-23.123-149.091-187.029-277.966-309.265-277.966-109.667 0-285.316 123.111-309.265 278.148-34.618 8.44-59.954 39.209-59.954 75.759 0 24.114 11.214 46.542 29.597 61.159-8.010 26.607-11.413 50.374-12.602 75.644-0.892 0.33-1.751 0.545-2.643 0.842-22.561 7.185-84.051 26.839-84.051 89.765 0 44.214 31.744 81.127 73.645 89.286 30.555 123.045 122.385 219.912 243.712 258.114 15.542 50.143 61.886 86.891 117.149 86.891h10.223c54.999 0 101.145-36.385 116.934-86.099 122.153-37.607 211.737-132.872 242.589-258.907 41.885-8.175 73.629-45.089 73.629-89.286 0-42.777-28.573-73.067-84.959-90.013-0.428-0.194-1.008-0.417-1.599-0.616l-0.152-0.044zM363.058 829.258v-95.595c0.103-44.342 36.064-80.25 80.415-80.268h10.225c44.346 0 80.45 36.038 80.45 80.268v95.595c0 44.23-36.104 80.235-80.45 80.235h-10.24c-44.313 0-80.401-36.005-80.401-80.235zM106.628 468.596c347.83-122.269 678.317-1.586 681.555-0.33 49.714 15.013 55.907 34.354 55.907 49.631-0.047 26.682-21.688 48.293-48.376 48.293-0.006 0-0.012 0-0.017 0h0.001c-0.007 0-0.015 0-0.023 0-10.283 0-18.87 7.263-20.911 16.938l-0.025 0.139c-22.578 111.187-95.86 196.955-197.83 235.388v-84.992c0-67.799-55.246-122.946-123.21-122.946h-10.24c-67.914 0-123.177 55.147-123.177 122.946v84.265c-101.871-39.127-177.152-126.266-199.201-234.661-2.059-9.814-10.643-17.078-20.923-17.078-0.019 0-0.037 0-0.056 0h0.003c0 0 0 0 0 0-26.685 0-48.322-21.614-48.359-48.29v-0.004c0-19.076 9.315-34.75 54.883-49.301zM139.115 413.201c1.635-14.65 4.575-29.316 9.084-45.023 3.463 0.524 7.46 0.823 11.526 0.823 12.511 0 24.361-2.831 34.945-7.887l-0.489 0.211 3.155 36.715c-26.607 6.008-46.122 11.23-65.396 17.010l7.177-1.848zM774.375 290.486c0 13.94-8.275 26.641-21.058 32.322-0.33 0.149-0.512 0.429-0.809 0.562-28.903 11.066-48.326-12.883-50.49-15.756-3.981-5.243-10.219-8.594-17.239-8.594-2.071 0-4.074 0.292-5.97 0.836l0.152-0.037c-8.432 2.43-14.64 9.707-15.453 18.547l-0.006 0.084-6.227 72.027c-64.934-12.645-139.644-19.925-216.038-20.017h-0.076c-62.761 0-130.857 5.318-201.662 18.663l-6.111-70.689c-0.966-10.959-10.101-19.489-21.228-19.489-0.021 0-0.043 0-0.064 0h0.003c-6.722 0-13.246 3.171-17.342 8.82-2.081 2.775-22.132 28.177-52.307 15.046-12.465-5.661-20.979-17.996-20.992-32.32v-0.002c0.056-19.569 15.933-35.411 35.51-35.411 0 0 0 0 0 0v0c11.148 0 21.388-8.522 22.247-19.654 10.95-138.901 172.808-256.165 268.668-256.165 98.122 0 257.569 114.787 268.717 256.165 0.892 11.063 10.090 19.703 21.306 19.704h0.066c20.53 0 36.402 15.855 36.402 35.345zM756.736 413.465c-15.542-4.426-34.849-9.447-57.278-14.435l3.27-37.706c12.75 5.979 28.077 9.084 44.924 6.937 3.937 12.883 7.129 28.207 8.964 43.946l0.119 1.259zM513.354 120.105c0-11.793-9.579-21.355-21.405-21.355h-86.049c-11.785 0-21.339 9.554-21.339 21.339s9.554 21.339 21.339 21.339h86.049c11.842 0 21.405-9.53 21.405-21.322zM376.254 304.723c3.848-3.865 6.441-9.414 6.441-14.931 0-5.549-2.593-11.132-6.441-15.377-3.9-3.667-9.156-5.93-14.941-5.962h-0.006c-5.979 0-11.561 2.098-15.41 5.962-3.705 3.966-5.98 9.308-5.98 15.182 0 0.068 0 0.136 0.001 0.205v-0.010c0 5.516 2.131 11.066 5.979 14.931 7.267 7.663 22.264 8.093 30.357 0zM549.938 304.723c4.261-3.865 6.392-9.414 6.392-14.931 0-5.549-2.147-11.132-5.979-14.98-4.724-4.261-9.86-6.359-15.41-6.359s-10.702 2.098-14.964 5.962c-3.955 3.928-6.408 9.364-6.425 15.373v0.003c0 5.516 2.18 11.066 6.441 14.931 8.142 8.093 22.214 8.093 29.944 0z" />
<glyph unicode="&#xe911;" glyph-name="envelope" horiz-adv-x="1365" d="M1209.6 816.299c4.537-5.016 7.314-11.699 7.314-19.031 0-8.378-3.626-15.909-9.394-21.11l-0.025-0.022-450.958-405.504c-21.095-18.804-49.065-30.294-79.719-30.294-0.174 0-0.348 0-0.522 0.001h0.027c-0.141-0.001-0.308-0.001-0.474-0.001-30.633 0-58.582 11.491-79.771 30.398l0.118-0.103-450.987 405.504c-5.787 5.227-9.407 12.758-9.407 21.135 0 7.329 2.772 14.011 7.325 19.054l-0.022-0.025c5.221 5.819 12.764 9.462 21.159 9.462 7.321 0 13.995-2.771 19.030-7.322l-0.025 0.022 450.93-405.504c23.268-20.907 61.042-20.907 84.281 0l450.958 405.504c5.006 4.543 11.683 7.324 19.009 7.324 8.398 0 15.942-3.654 21.13-9.458l0.024-0.027zM1206.67 120.462c6.339-5.25 10.347-13.123 10.347-21.931 0-15.694-12.722-28.416-28.416-28.416-0.058 0-0.115 0-0.173 0.001h0.009c-6.933 0.002-13.287 2.484-18.221 6.607l0.045-0.037-302.080 251.278c-6.298 5.261-10.276 13.117-10.276 21.902 0 15.729 12.751 28.48 28.48 28.48 6.944 0 13.307-2.485 18.25-6.614l-0.045 0.037zM488.22 368.014c4.084-4.89 6.564-11.243 6.564-18.175 0-8.774-3.972-16.62-10.217-21.838l-0.045-0.037-302.080-251.278c-4.892-4.057-11.233-6.518-18.15-6.518-8.778 0-16.63 3.964-21.864 10.2l-0.036 0.044c-4.105 4.893-6.599 11.259-6.599 18.207 0 8.76 3.964 16.594 10.195 21.806l0.045 0.036 302.108 251.278c4.891 4.1 11.253 6.59 18.196 6.59 8.782 0 16.633-3.983 21.845-10.242l0.037-0.046zM1365.333 801.223v-706.617c0-87.41-72.732-158.578-162.133-158.578h-1041.522c-90.652 0-161.678 69.66-161.678 158.578v706.674c0 89.031 71.026 158.777 161.678 158.777h1041.522c89.401 0 162.133-71.225 162.133-158.777zM1308.444 801.223c0 57.145-46.222 101.888-105.244 101.888h-1041.522c-58.766 0-104.789-44.743-104.789-101.86v-706.645c0-57.031 46.023-101.689 104.789-101.689h1041.522c59.022 0 105.244 44.658 105.244 101.689z" />
<glyph unicode="&#xe912;" glyph-name="plus" d="M0 362.667v170.667h1024v-170.667zM426.667-64v1024h170.667v-1024z" />
<glyph unicode="&#xf09a;" glyph-name="facebook, facebook-f" horiz-adv-x="602" d="M548 944v-150.857h-89.714c-70.286 0-83.429-33.714-83.429-82.286v-108h167.429l-22.286-169.143h-145.143v-433.714h-174.857v433.714h-145.714v169.143h145.714v124.571c0 144.571 88.571 223.429 217.714 223.429 61.714 0 114.857-4.571 130.286-6.857z" />
<glyph unicode="&#xf104;" glyph-name="angle-left" horiz-adv-x="384" d="M358.286 640c0-4.571-2.286-9.714-5.714-13.143l-224.571-224.571 224.571-224.571c3.429-3.429 5.714-8.571 5.714-13.143s-2.286-9.714-5.714-13.143l-28.571-28.571c-3.429-3.429-8.571-5.714-13.143-5.714s-9.714 2.286-13.143 5.714l-266.286 266.286c-3.429 3.429-5.714 8.571-5.714 13.143s2.286 9.714 5.714 13.143l266.286 266.286c3.429 3.429 8.571 5.714 13.143 5.714s9.714-2.286 13.143-5.714l28.571-28.571c3.429-3.429 5.714-8 5.714-13.143z" />
<glyph unicode="&#xf105;" glyph-name="angle-right" horiz-adv-x="347" d="M340 402.286c0-4.571-2.286-9.714-5.714-13.143l-266.286-266.286c-3.429-3.429-8.571-5.714-13.143-5.714s-9.714 2.286-13.143 5.714l-28.571 28.571c-3.429 3.429-5.714 8-5.714 13.143 0 4.571 2.286 9.714 5.714 13.143l224.571 224.571-224.571 224.571c-3.429 3.429-5.714 8.571-5.714 13.143s2.286 9.714 5.714 13.143l28.571 28.571c3.429 3.429 8.571 5.714 13.143 5.714s9.714-2.286 13.143-5.714l266.286-266.286c3.429-3.429 5.714-8.571 5.714-13.143z" />
<glyph unicode="&#xf106;" glyph-name="angle-up" horiz-adv-x="658" d="M614.286 274.286c0-4.571-2.286-9.714-5.714-13.143l-28.571-28.571c-3.429-3.429-8-5.714-13.143-5.714-4.571 0-9.714 2.286-13.143 5.714l-224.571 224.571-224.571-224.571c-3.429-3.429-8.571-5.714-13.143-5.714s-9.714 2.286-13.143 5.714l-28.571 28.571c-3.429 3.429-5.714 8.571-5.714 13.143s2.286 9.714 5.714 13.143l266.286 266.286c3.429 3.429 8.571 5.714 13.143 5.714s9.714-2.286 13.143-5.714l266.286-266.286c3.429-3.429 5.714-8.571 5.714-13.143z" />
<glyph unicode="&#xf107;" glyph-name="angle-down" horiz-adv-x="658" d="M614.286 530.286c0-4.571-2.286-9.714-5.714-13.143l-266.286-266.286c-3.429-3.429-8.571-5.714-13.143-5.714s-9.714 2.286-13.143 5.714l-266.286 266.286c-3.429 3.429-5.714 8.571-5.714 13.143s2.286 9.714 5.714 13.143l28.571 28.571c3.429 3.429 8 5.714 13.143 5.714 4.571 0 9.714-2.286 13.143-5.714l224.571-224.571 224.571 224.571c3.429 3.429 8.571 5.714 13.143 5.714s9.714-2.286 13.143-5.714l28.571-28.571c3.429-3.429 5.714-8.571 5.714-13.143z" />
<glyph unicode="&#xf16d;" glyph-name="instagram" horiz-adv-x="878" d="M585.143 438.857c0 80.571-65.714 146.286-146.286 146.286s-146.286-65.714-146.286-146.286 65.714-146.286 146.286-146.286 146.286 65.714 146.286 146.286zM664 438.857c0-124.571-100.571-225.143-225.143-225.143s-225.143 100.571-225.143 225.143 100.571 225.143 225.143 225.143 225.143-100.571 225.143-225.143zM725.714 673.143c0-29.143-23.429-52.571-52.571-52.571s-52.571 23.429-52.571 52.571 23.429 52.571 52.571 52.571 52.571-23.429 52.571-52.571zM438.857 798.857c-64 0-201.143 5.143-258.857-17.714-20-8-34.857-17.714-50.286-33.143s-25.143-30.286-33.143-50.286c-22.857-57.714-17.714-194.857-17.714-258.857s-5.143-201.143 17.714-258.857c8-20 17.714-34.857 33.143-50.286s30.286-25.143 50.286-33.143c57.714-22.857 194.857-17.714 258.857-17.714s201.143-5.143 258.857 17.714c20 8 34.857 17.714 50.286 33.143s25.143 30.286 33.143 50.286c22.857 57.714 17.714 194.857 17.714 258.857s5.143 201.143-17.714 258.857c-8 20-17.714 34.857-33.143 50.286s-30.286 25.143-50.286 33.143c-57.714 22.857-194.857 17.714-258.857 17.714zM877.714 438.857c0-60.571 0.571-120.571-2.857-181.143-3.429-70.286-19.429-132.571-70.857-184s-113.714-67.429-184-70.857c-60.571-3.429-120.571-2.857-181.143-2.857s-120.571-0.571-181.143 2.857c-70.286 3.429-132.571 19.429-184 70.857s-67.429 113.714-70.857 184c-3.429 60.571-2.857 120.571-2.857 181.143s-0.571 120.571 2.857 181.143c3.429 70.286 19.429 132.571 70.857 184s113.714 67.429 184 70.857c60.571 3.429 120.571 2.857 181.143 2.857s120.571 0.571 181.143-2.857c70.286-3.429 132.571-19.429 184-70.857s67.429-113.714 70.857-184c3.429-60.571 2.857-120.571 2.857-181.143z" />
<glyph unicode="&#xf189;" glyph-name="vk" horiz-adv-x="1119" d="M1095.429 653.714c8.571-23.429-18.286-78.286-85.714-168-110.857-147.429-122.857-133.714-31.429-218.857 88-81.714 106.286-121.143 109.143-126.286 0 0 36.571-64-40.571-64.571l-146.286-2.286c-31.429-6.286-73.143 22.286-73.143 22.286-54.857 37.714-106.286 135.429-146.286 122.857 0 0-41.143-13.143-40-101.143 0.571-18.857-8.571-29.143-8.571-29.143s-10.286-10.857-30.286-12.571h-65.714c-144.571-9.143-272 124-272 124s-139.429 144-261.714 431.429c-8 18.857 0.571 28 0.571 28s8.571 10.857 32.571 10.857l156.571 1.143c14.857-2.286 25.143-10.286 25.143-10.286s9.143-6.286 13.714-18.286c25.714-64 58.857-122.286 58.857-122.286 57.143-117.714 96-137.714 118.286-125.714 0 0 29.143 17.714 22.857 160-2.286 51.429-16.571 74.857-16.571 74.857-13.143 17.714-37.714 22.857-48.571 24.571-8.571 1.143 5.714 21.714 24.571 30.857 28 13.714 77.714 14.286 136.571 13.714 46.286-0.571 59.429-3.429 77.143-7.429 54.286-13.143 36-63.429 36-184.571 0-38.857-7.429-93.143 20.571-110.857 12-8 41.714-1.143 114.857 123.429 0 0 34.286 59.429 61.143 128.571 4.571 12.571 14.286 17.714 14.286 17.714s9.143 5.143 21.714 3.429l164.571 1.143c49.714 6.286 57.714-16.571 57.714-16.571z" />
</font>
</defs>
</svg>
