<svg xmlns="http://www.w3.org/2000/svg" xmlns:xlink="http://www.w3.org/1999/xlink" width="20" height="20" viewBox="0 0 20 20"><defs><path id="78ria" d="M494.01 5243.98a5.973 5.973 0 0 1-9.426 4.869l-2.954 2.95 1.4 1.398-1.408 1.407-1.4-1.399-1.972 1.968 1.381 1.38-1.409 1.406-1.38-1.38-1.42 1.42-1.41-1.407 9.16-9.147a5.925 5.925 0 0 1-1.116-3.465 5.973 5.973 0 0 1 5.976-5.969 5.973 5.973 0 0 1 5.977 5.969zm-1.993 0a3.986 3.986 0 0 0-3.985-3.98 3.986 3.986 0 0 0-3.984 3.98 3.986 3.986 0 0 0 3.984 3.979 3.986 3.986 0 0 0 3.985-3.98z"/></defs><g><g transform="translate(-474 -5238)"><use fill="#f73232" xlink:href="#78ria"/></g></g></svg>
