<svg xmlns="http://www.w3.org/2000/svg" xmlns:xlink="http://www.w3.org/1999/xlink" width="20" height="20" viewBox="0 0 20 20"><defs><path id="n5yya" d="M490.986 4106.88a1.01 1.01 0 0 1-1.003 1.108.99.99 0 0 1-.992-.89c-.402-4.462-3.834-7.106-7.994-7.106s-7.592 2.644-7.995 7.105a.99.99 0 0 1-.992.89 1.01 1.01 0 0 1-1.002-1.108c.385-3.994 2.845-6.954 6.215-8.214a5.972 5.972 0 0 1-2.251-4.671c0-3.55 3.096-6.378 6.747-5.956 2.645.306 4.836 2.404 5.233 5.026a5.976 5.976 0 0 1-2.181 5.6c3.37 1.261 5.83 4.221 6.215 8.215zm-5.972-12.886c0-2.205-1.802-3.999-4.017-3.999-2.215 0-4.017 1.794-4.017 3.999 0 2.204 1.802 3.998 4.017 3.998 2.215 0 4.017-1.794 4.017-3.998z"/></defs><g><g transform="translate(-471 -4088)"><use fill="#f73232" xlink:href="#n5yya"/></g></g></svg>