<svg xmlns="http://www.w3.org/2000/svg" xmlns:xlink="http://www.w3.org/1999/xlink" width="20" height="20" viewBox="0 0 20 20"><defs><path id="lgrpa" d="M773.986 1757.879a1.01 1.01 0 0 1-1.003 1.108.99.99 0 0 1-.992-.89c-.402-4.461-3.834-7.106-7.994-7.106s-7.592 2.645-7.994 7.106a.99.99 0 0 1-.992.89 1.01 1.01 0 0 1-1.003-1.108c.385-3.993 2.845-6.954 6.215-8.214a5.972 5.972 0 0 1-2.251-4.671c0-3.55 3.096-6.378 6.747-5.956 2.645.306 4.837 2.405 5.233 5.025a5.979 5.979 0 0 1-2.181 5.602c3.37 1.26 5.83 4.22 6.215 8.214zm-5.972-12.885c0-2.205-1.802-4-4.017-4-2.215 0-4.017 1.795-4.017 4s1.802 3.998 4.017 3.998c2.215 0 4.017-1.793 4.017-3.998z"/></defs><g><g transform="translate(-754 -1739)"><use fill="#fff" xlink:href="#lgrpa"/></g></g></svg>