<svg xmlns="http://www.w3.org/2000/svg" xmlns:xlink="http://www.w3.org/1999/xlink" width="20" height="20" viewBox="0 0 20 20"><defs><path id="qunia" d="M787.374 3381.93l10.663 10.667-1.438 1.439-10.663-10.666zm12.82 14.264a6.1 6.1 0 0 1-8.629 0l-1.438-1.439 1.438-1.438 1.439 1.438a4.072 4.072 0 0 0 5.753 0 4.075 4.075 0 0 0 0-5.755l-1.439-1.438 1.439-1.438 1.438 1.438a6.105 6.105 0 0 1 0 8.632zm-14.977-9.228l1.438 1.439-1.438 1.439-1.439-1.44a6.104 6.104 0 0 1 8.63-8.63l1.438 1.438-1.438 1.438-1.438-1.438a4.071 4.071 0 0 0-5.753 0 4.074 4.074 0 0 0 0 5.754z"/></defs><g><g transform="translate(-782 -3378)"><use fill="#fff" xlink:href="#qunia"/></g></g></svg>